<svg id="visual" viewBox="0 0 900 600" width="900" height="600" xmlns="http://www.w3.org/2000/svg" xmlns:xlink="http://www.w3.org/1999/xlink" version="1.1"><rect x="0" y="0" width="900" height="600" fill="#001220"></rect><path d="M0 371L21.5 375.7C43 380.3 86 389.7 128.8 386.2C171.7 382.7 214.3 366.3 257.2 374C300 381.7 343 413.3 385.8 423.7C428.7 434 471.3 423 514.2 410.8C557 398.7 600 385.3 642.8 390.7C685.7 396 728.3 420 771.2 427.2C814 434.3 857 424.7 878.5 419.8L900 415L900 601L878.5 601C857 601 814 601 771.2 601C728.3 601 685.7 601 642.8 601C600 601 557 601 514.2 601C471.3 601 428.7 601 385.8 601C343 601 300 601 257.2 601C214.3 601 171.7 601 128.8 601C86 601 43 601 21.5 601L0 601Z" fill="#fa7268"></path><path d="M0 396L21.5 407C43 418 86 440 128.8 441.5C171.7 443 214.3 424 257.2 421.3C300 418.7 343 432.3 385.8 433.7C428.7 435 471.3 424 514.2 420.2C557 416.3 600 419.7 642.8 423.5C685.7 427.3 728.3 431.7 771.2 435C814 438.3 857 440.7 878.5 441.8L900 443L900 601L878.5 601C857 601 814 601 771.2 601C728.3 601 685.7 601 642.8 601C600 601 557 601 514.2 601C471.3 601 428.7 601 385.8 601C343 601 300 601 257.2 601C214.3 601 171.7 601 128.8 601C86 601 43 601 21.5 601L0 601Z" fill="#ef5f67"></path><path d="M0 505L21.5 495.3C43 485.7 86 466.3 128.8 456.2C171.7 446 214.3 445 257.2 450.8C300 456.7 343 469.3 385.8 471.5C428.7 473.7 471.3 465.3 514.2 458.8C557 452.3 600 447.7 642.8 446.2C685.7 444.7 728.3 446.3 771.2 448.7C814 451 857 454 878.5 455.5L900 457L900 601L878.5 601C857 601 814 601 771.2 601C728.3 601 685.7 601 642.8 601C600 601 557 601 514.2 601C471.3 601 428.7 601 385.8 601C343 601 300 601 257.2 601C214.3 601 171.7 601 128.8 601C86 601 43 601 21.5 601L0 601Z" fill="#e34c67"></path><path d="M0 541L21.5 535.5C43 530 86 519 128.8 512.7C171.7 506.3 214.3 504.7 257.2 501.3C300 498 343 493 385.8 499.2C428.7 505.3 471.3 522.7 514.2 521.7C557 520.7 600 501.3 642.8 500.8C685.7 500.3 728.3 518.7 771.2 525.3C814 532 857 527 878.5 524.5L900 522L900 601L878.5 601C857 601 814 601 771.2 601C728.3 601 685.7 601 642.8 601C600 601 557 601 514.2 601C471.3 601 428.7 601 385.8 601C343 601 300 601 257.2 601C214.3 601 171.7 601 128.8 601C86 601 43 601 21.5 601L0 601Z" fill="#d53867"></path><path d="M0 568L21.5 567.3C43 566.7 86 565.3 128.8 564.7C171.7 564 214.3 564 257.2 559.3C300 554.7 343 545.3 385.8 541.2C428.7 537 471.3 538 514.2 536.7C557 535.3 600 531.7 642.8 529.5C685.7 527.3 728.3 526.7 771.2 526.3C814 526 857 526 878.5 526L900 526L900 601L878.5 601C857 601 814 601 771.2 601C728.3 601 685.7 601 642.8 601C600 601 557 601 514.2 601C471.3 601 428.7 601 385.8 601C343 601 300 601 257.2 601C214.3 601 171.7 601 128.8 601C86 601 43 601 21.5 601L0 601Z" fill="#c62368"></path></svg>