<svg id="visual" viewBox="0 0 900 600" width="900" height="600" xmlns="http://www.w3.org/2000/svg" xmlns:xlink="http://www.w3.org/1999/xlink" version="1.1"><path d="M674 600L746 600L746 545L611 545L611 491L602 491L602 436L719 436L719 382L674 382L674 327L755 327L755 273L593 273L593 218L710 218L710 164L755 164L755 109L692 109L692 55L566 55L566 0L900 0L900 55L900 55L900 109L900 109L900 164L900 164L900 218L900 218L900 273L900 273L900 327L900 327L900 382L900 382L900 436L900 436L900 491L900 491L900 545L900 545L900 600L900 600Z" fill="#fa7268"></path><path d="M521 600L638 600L638 545L530 545L530 491L458 491L458 436L656 436L656 382L503 382L503 327L665 327L665 273L530 273L530 218L593 218L593 164L620 164L620 109L521 109L521 55L422 55L422 0L567 0L567 55L693 55L693 109L756 109L756 164L711 164L711 218L594 218L594 273L756 273L756 327L675 327L675 382L720 382L720 436L603 436L603 491L612 491L612 545L747 545L747 600L675 600Z" fill="#ea5e66"></path><path d="M224 600L305 600L305 545L215 545L215 491L197 491L197 436L377 436L377 382L350 382L350 327L260 327L260 273L350 273L350 218L188 218L188 164L278 164L278 109L188 109L188 55L152 55L152 0L423 0L423 55L522 55L522 109L621 109L621 164L594 164L594 218L531 218L531 273L666 273L666 327L504 327L504 382L657 382L657 436L459 436L459 491L531 491L531 545L639 545L639 600L522 600Z" fill="#d84a64"></path><path d="M134 600L161 600L161 545L125 545L125 491L80 491L80 436L251 436L251 382L197 382L197 327L188 327L188 273L215 273L215 218L116 218L116 164L134 164L134 109L134 109L134 55L80 55L80 0L153 0L153 55L189 55L189 109L279 109L279 164L189 164L189 218L351 218L351 273L261 273L261 327L351 327L351 382L378 382L378 436L198 436L198 491L216 491L216 545L306 545L306 600L225 600Z" fill="#c53762"></path><path d="M0 600L0 600L0 545L0 545L0 491L0 491L0 436L0 436L0 382L0 382L0 327L0 327L0 273L0 273L0 218L0 218L0 164L0 164L0 109L0 109L0 55L0 55L0 0L81 0L81 55L135 55L135 109L135 109L135 164L117 164L117 218L216 218L216 273L189 273L189 327L198 327L198 382L252 382L252 436L81 436L81 491L126 491L126 545L162 545L162 600L135 600Z" fill="#b0235f"></path></svg>